<svg width="150" height="130" viewBox="0 0 184 257" fill="none" xmlns="http://www.w3.org/2000/svg">
<path d="M91.7061 0C116.928 0 139.855 10.3167 156.475 26.9367C173.096 43.5568 183.412 66.4835 183.412 91.7061V165.294C183.412 190.516 173.096 213.443 156.475 230.063C139.855 246.683 116.929 257 91.7061 257C66.4835 257 43.5572 246.683 26.9367 230.063C10.3167 213.443 0 190.516 0 165.294V91.7061C0 66.484 10.3167 43.5572 26.9367 26.9367C43.5567 10.3167 66.4835 0 91.7061 0ZM15.1168 134.036C15.6935 134.473 16.3027 134.814 16.9924 135.034C18.2645 135.439 19.7282 135.4 21.0424 135.297C23.3683 135.111 25.7401 134.695 28.0525 134.364C33.9247 133.523 40.2256 132.011 45.5401 129.358C56.1271 124.072 62.8267 117.61 67.925 106.887C68.8637 104.912 69.5726 102.828 70.1761 100.73C73.0517 90.7076 73.774 77.4962 85.5508 73.7889C89.5511 72.5302 93.8405 72.6087 97.8161 73.9326C101.037 75.0054 104.261 76.9864 106.376 79.6782C109.129 83.1785 109.993 89.583 110.188 93.8955C110.518 101.178 109.393 108.759 107.271 115.717C101.113 135.883 86.8688 150.778 67.6341 159.164C57.2983 163.67 46.7344 165.898 35.8409 168.46C32.4576 169.255 21.6006 171.54 20.062 175.125C19.7996 175.738 19.7919 176.393 19.8954 177.043C20.0237 177.84 20.29 178.861 21.0295 179.315C23.2826 180.698 30.5644 178.231 33.1815 177.554C44.2589 174.688 55.5452 171.822 66.2911 167.874C75.439 164.511 84.3805 160.243 91.9423 154.007C93.8505 152.434 95.6591 150.745 97.3525 148.942C104.187 141.66 109.451 131.766 112.921 122.459C117.277 110.767 121.168 92.7808 116.132 80.7917C113.804 75.249 109.533 70.8889 104.225 68.1301C103.317 67.6588 102.384 67.2373 101.431 66.8657C97.3679 65.2832 92.9329 64.6203 88.586 65.0111C76.6601 66.084 68.8148 74.3489 65.9044 85.6426C63.887 93.4707 62.0287 102.607 57.6339 109.47C55.2468 113.198 52.2237 116.154 48.5585 118.618C42.0679 122.984 35.688 125.415 27.9403 126.312C25.6586 126.576 23.3749 126.688 21.0951 126.919C19.4743 127.084 17.7538 127.327 16.2403 127.952C16.0449 128.032 15.8495 128.121 15.6598 128.216C14.5391 128.778 13.8877 129.73 13.7727 130.979C13.6578 132.228 14.1233 133.284 15.1253 134.039L15.1168 134.036ZM118.044 151.802C117.078 152.269 115.668 153.111 115.44 154.235C114.948 156.651 118.885 160.538 120.444 161.945C124.852 165.924 130.512 169.355 135.777 172.073C140.783 174.66 146.26 177.024 151.686 178.57C153.832 179.183 159.208 180.511 161.359 179.631C162.214 179.283 162.855 178.658 163.196 177.8C163.595 176.798 163.513 175.643 163.045 174.679C162.401 173.353 161.15 172.539 159.777 172.115C154.138 170.382 148.642 168.883 143.145 166.692C137.03 164.253 131.574 161.164 126.723 156.695C125.409 155.486 124.2 154.192 122.909 152.968C122.361 152.449 121.564 151.71 120.839 151.453C119.995 151.154 118.868 151.495 118.048 151.798L118.044 151.802ZM125.272 233.531C125.276 233.512 125.278 233.495 125.278 233.476C125.253 232.435 122.433 230.613 121.666 230.169C118.518 228.337 114.667 226.994 111.168 226.025C107.194 224.925 100.324 223.469 96.2239 224.107C88.4992 225.308 80.5926 226.676 72.9827 228.46C70.291 229.09 67.5534 229.437 64.8692 230.046C63.7062 230.311 61.6601 230.824 60.8478 231.778C60.4876 232.202 60.365 232.732 60.3267 233.275L60.3229 233.336L60.3152 233.399C60.2482 233.976 60.2309 234.767 60.6237 235.248C61.4953 236.321 64.2887 236.464 65.5263 236.47C68.8388 236.484 72.4329 235.834 75.6669 235.139C78.6001 234.508 81.5043 233.75 84.4029 232.968C86.5889 232.378 88.8342 231.717 91.0471 231.255C98.5456 229.694 105.615 231.234 112.763 233.497C115.242 234.282 117.828 235.227 120.363 235.782C121.288 235.985 123.129 236.33 124.022 235.853C124.756 235.461 125.116 234.202 125.269 233.533L125.272 233.531ZM142.275 214.224C140.995 213.587 139.505 213.007 138.204 212.446C135.432 211.25 132.654 210.068 129.877 208.884C127.197 207.742 124.517 206.602 121.838 205.457C120.269 204.786 118.671 204.125 117.121 203.414C106.54 198.573 101.275 197.931 89.863 200.822C75.2048 204.533 60.9321 209.579 46.0821 212.58C44.1395 212.973 41.6948 213.76 40.2849 215.241C39.6719 215.885 39.2254 216.709 39.3768 217.622C39.758 219.908 42.8023 220.657 44.7277 220.586C48.6532 220.443 52.7456 219.584 56.5447 218.621C61.1522 217.454 65.7083 216.011 70.2273 214.546C75.4345 212.858 80.6343 211.097 85.8988 209.599C90.3034 208.346 95.1733 207.118 99.7581 206.892C106.174 206.576 115.343 211.155 121.095 213.898C125.133 215.823 136.32 221.576 140.667 220.795C143.686 220.253 144.443 216.235 142.274 214.225L142.275 214.224ZM37.3177 146.036C35.6835 146.63 33.8615 147.001 32.164 147.342C30.114 147.754 28.0583 148.122 26.0161 148.567C23.6941 149.072 17.2802 150.53 16.1938 152.95C15.7398 153.96 16.3528 155.356 16.8874 156.308C18.1442 156.914 22.043 156.874 23.2363 156.824C27.8899 156.63 32.7256 155.778 37.2486 154.705C49.2397 151.858 61.6197 146.684 71.5956 139.401C78.893 134.075 85.2096 127.389 89.1273 119.176C92.7617 111.557 96.1202 99.1418 94.9897 90.6643C94.8058 89.2849 93.9437 88.26 92.618 87.8385C91.9263 87.6182 90.0297 87.0817 89.338 87.5779C88.1062 88.4631 87.4874 93.6552 87.2881 95.0672C86.4605 100.933 85.6271 106.332 83.5024 111.925C75.9538 131.775 56.7594 141.084 37.3153 146.036L37.3177 146.036ZM27.6199 195.65L27.4475 195.853L27.1582 196.06C26.8019 196.317 26.5547 196.656 26.4244 197.074C26.1332 198.01 26.4896 199.056 27.1333 199.761C28.2809 201.018 30.1546 201.196 31.7466 200.99C35.6147 200.488 39.6993 199.459 43.4793 198.495C48.7649 197.15 54.024 195.662 59.2601 194.133C68.3046 191.491 77.2804 188.667 86.2925 185.924C93.8832 183.613 101.483 182.119 109.34 184.004C115.327 185.441 121.187 188.705 126.671 191.456C128.644 192.447 130.588 193.497 132.564 194.491C135.275 195.857 138.026 197.167 140.832 198.326C143.787 199.547 147.111 200.76 150.272 201.271C151.594 201.484 154.232 201.756 155.362 200.813C155.448 200.74 155.527 200.662 155.596 200.574C156.606 199.292 156.686 196.677 155.751 195.336C154.837 194.025 150.487 193.368 148.978 193.002C140.6 190.97 133.295 187.251 125.718 183.295C119.8 180.206 113.221 176.674 106.561 175.645C103.964 175.244 101.379 175.229 98.7833 175.662C86.3459 177.729 74.4578 182.488 62.4113 186.065C60.0011 186.781 57.4704 187.345 55.0221 187.923C51.5525 188.743 48.0812 189.548 44.6191 190.395C40.8602 191.314 37.0705 192.268 33.3729 193.406C32.2234 193.761 28.5661 194.899 27.6214 195.65L27.6199 195.65ZM169.243 133.549C169.583 132.33 170.052 130.309 169.171 129.376C168.853 129.039 168.418 128.738 168.036 128.474C167.364 128.008 166.697 127.562 166.065 127.037C164.071 125.382 162.915 123.381 162.4 120.839C161.833 118.044 162.203 114.132 162.421 111.277C162.77 106.744 163.165 102.24 163.312 97.69C163.684 86.3674 162.64 74.953 158.183 64.4235C150.296 45.7842 135.642 31.2124 116.522 24.2734C96.0374 16.8401 74.3466 18.6028 55.519 29.6243C38.6445 39.5045 25.6072 56.1338 20.9842 75.2287C20.4707 77.3514 20.0627 79.501 19.7657 81.6639C19.5167 83.4782 19.7983 85.8117 21.5723 86.7965C22.9537 87.5629 24.632 87.1107 25.9021 86.3367C27.5229 85.3482 28.546 80.5989 28.9311 78.8651C29.3755 76.8689 29.7664 74.8323 30.3507 72.8703C37.3818 49.2751 56.2143 33.0307 80.4114 29.007C83.2794 28.53 86.1761 28.2369 89.0806 28.1296C94.0945 27.9437 99.131 28.3077 104.064 29.2216C116.102 31.4536 127.336 36.9271 136.218 45.3953C146.196 54.9038 152.2 67.1784 154.65 80.6698C156.181 89.0919 155.516 97.0519 154.687 105.476C154.101 111.419 153.246 118.657 155.097 124.424C156.076 127.476 157.744 129.978 160.095 132.148C161.792 133.715 164.034 134.967 166.416 134.786C167.283 134.721 168.672 134.33 169.245 133.547L169.243 133.549ZM84.4734 42.9128C67.5012 45.367 55.7548 53.4232 48.4309 68.9221C45.7928 74.5029 44.0705 80.2751 42.287 86.1591C41.1049 90.0635 39.4611 95.924 36.5702 98.8766C34.4226 101.068 32.0163 102.381 28.9721 102.812C25.1423 103.352 21.7531 102.45 17.9138 103.779C16.8295 104.155 15.7087 104.867 15.4673 106.072C15.0401 108.203 17.2625 110.019 18.9618 110.782C23.7399 112.922 30.1888 111.276 34.7559 109.375C38.7523 107.712 41.8464 105.253 44.2756 101.668C46.2355 98.7769 47.5728 95.4587 48.6954 92.1653C49.9829 88.3892 51.0347 84.5343 52.303 80.749C55.3951 71.53 59.4489 63.9029 67.4016 57.937C77.9807 49.9995 90.8532 47.9077 103.379 52.1261C114.069 55.7279 123.784 63.7975 128.729 74.0028C130.576 77.8134 131.724 81.8403 132.345 86.0229C133.324 92.6268 132.967 99.3304 132.496 105.959C131.507 119.849 129.935 133.576 139.861 144.877C141.094 146.28 142.878 147.726 144.344 148.878C146.74 150.761 149.304 152.516 151.956 154.02C155.136 155.826 160.841 158.564 164.593 157.558C165.665 157.271 166.51 156.562 166.951 155.539C167.941 153.232 166.476 151.125 164.401 150.127C161.836 148.891 159.303 148.105 156.661 147.121C153.824 146.061 151.446 144.812 149.009 142.994C147.427 141.812 146.049 140.411 144.894 138.81C140.714 133.015 139.938 125.259 139.827 118.32C139.698 110.253 140.419 102.181 140.311 94.1C140.206 86.2679 139.369 78.1102 136.008 70.9358C131.905 62.1768 125.023 54.5115 116.796 49.4304C106.983 43.3708 95.8676 41.2668 84.4777 42.9127L84.4734 42.9128ZM152.313 31.0938C136.758 15.5371 115.303 5.88349 91.7076 5.88349C68.1104 5.88349 46.6569 15.5396 31.1022 31.0938C15.5454 46.6505 5.88986 68.104 5.88986 91.6992V165.287C5.88986 188.884 15.5459 210.338 31.1002 225.892C46.6569 241.447 68.1104 251.103 91.7056 251.103C115.303 251.103 136.756 241.447 152.311 225.892C167.868 210.336 177.523 188.882 177.523 165.287V91.6992C177.523 68.102 167.867 46.6486 152.311 31.0938H152.313Z" fill="#717171"/>
</svg>
